<svg width="110" height="28" viewBox="0 0 110 28" fill="none" xmlns="http://www.w3.org/2000/svg">
<path d="M11.7 26.1C11.508 26.172 11.208 26.304 10.8 26.496C10.392 26.688 9.9 26.856 9.324 27C8.748 27.144 8.124 27.216 7.452 27.216C6.756 27.216 6.096 27.084 5.472 26.82C4.872 26.556 4.392 26.16 4.032 25.632C3.672 25.08 3.492 24.408 3.492 23.616V10.188H0.9V8.244H3.492V1.908H5.94V8.244H10.26V10.188H5.94V22.932C5.988 23.604 6.228 24.108 6.66 24.444C7.116 24.78 7.632 24.948 8.208 24.948C8.88 24.948 9.492 24.84 10.044 24.624C10.596 24.384 10.932 24.216 11.052 24.12L11.7 26.1ZM13.2466 21.6C13.2466 20.424 13.5826 19.416 14.2546 18.576C14.9266 17.712 15.8506 17.052 17.0266 16.596C18.2266 16.116 19.6066 15.876 21.1666 15.876C22.0786 15.876 23.0266 15.948 24.0106 16.092C24.9946 16.236 25.8706 16.452 26.6386 16.74V15.156C26.6386 13.572 26.1706 12.312 25.2346 11.376C24.2986 10.44 23.0026 9.972 21.3466 9.972C20.3386 9.972 19.3426 10.164 18.3586 10.548C17.3986 10.908 16.3906 11.448 15.3346 12.168L14.3986 10.44C15.6226 9.6 16.8226 8.976 17.9986 8.568C19.1746 8.136 20.3746 7.92 21.5986 7.92C23.9026 7.92 25.7266 8.58 27.0706 9.9C28.4146 11.22 29.0866 13.044 29.0866 15.372V24.048C29.0866 24.384 29.1586 24.636 29.3026 24.804C29.4466 24.948 29.6746 25.032 29.9866 25.056V27C29.7226 27.024 29.4946 27.048 29.3026 27.072C29.1106 27.096 28.9666 27.096 28.8706 27.072C28.2706 27.048 27.8146 26.856 27.5026 26.496C27.1906 26.136 27.0226 25.752 26.9986 25.344L26.9626 23.976C26.1226 25.056 25.0306 25.896 23.6866 26.496C22.3426 27.072 20.9746 27.36 19.5826 27.36C18.3826 27.36 17.2906 27.108 16.3066 26.604C15.3466 26.076 14.5906 25.38 14.0386 24.516C13.5106 23.628 13.2466 22.656 13.2466 21.6ZM25.8106 23.04C26.0746 22.704 26.2786 22.38 26.4226 22.068C26.5666 21.756 26.6386 21.48 26.6386 21.24V18.504C25.8226 18.192 24.9706 17.952 24.0826 17.784C23.2186 17.616 22.3426 17.532 21.4546 17.532C19.7026 17.532 18.2866 17.88 17.2066 18.576C16.1266 19.272 15.5866 20.22 15.5866 21.42C15.5866 22.116 15.7666 22.776 16.1266 23.4C16.4866 24 17.0146 24.504 17.7106 24.912C18.4066 25.296 19.2226 25.488 20.1586 25.488C21.3346 25.488 22.4266 25.26 23.4346 24.804C24.4666 24.348 25.2586 23.76 25.8106 23.04ZM40.5318 27.36C38.9958 27.36 37.5678 27.108 36.2478 26.604C34.9278 26.1 33.7878 25.332 32.8278 24.3L33.8358 22.572C34.8918 23.556 35.9478 24.276 37.0038 24.732C38.0838 25.164 39.2238 25.38 40.4238 25.38C41.8878 25.38 43.0758 25.092 43.9878 24.516C44.8998 23.916 45.3558 23.064 45.3558 21.96C45.3558 21.216 45.1278 20.652 44.6718 20.268C44.2398 19.86 43.6038 19.536 42.7638 19.296C41.9478 19.032 40.9638 18.756 39.8118 18.468C38.5158 18.108 37.4238 17.736 36.5358 17.352C35.6718 16.944 35.0118 16.44 34.5558 15.84C34.1238 15.216 33.9078 14.412 33.9078 13.428C33.9078 12.204 34.2078 11.196 34.8078 10.404C35.4318 9.588 36.2718 8.976 37.3278 8.568C38.4078 8.136 39.6078 7.92 40.9278 7.92C42.3678 7.92 43.6398 8.148 44.7438 8.604C45.8478 9.06 46.7478 9.696 47.4438 10.512L46.2558 12.168C45.5838 11.4 44.7798 10.836 43.8438 10.476C42.9318 10.092 41.9118 9.9 40.7838 9.9C40.0158 9.9 39.2838 10.008 38.5878 10.224C37.8918 10.416 37.3158 10.752 36.8598 11.232C36.4278 11.688 36.2118 12.324 36.2118 13.14C36.2118 13.812 36.3798 14.34 36.7158 14.724C37.0518 15.084 37.5558 15.396 38.2278 15.66C38.8998 15.9 39.7278 16.164 40.7118 16.452C42.1278 16.836 43.3638 17.232 44.4198 17.64C45.4758 18.024 46.2918 18.528 46.8678 19.152C47.4438 19.776 47.7318 20.652 47.7318 21.78C47.7318 23.532 47.0718 24.9 45.7518 25.884C44.4318 26.868 42.6918 27.36 40.5318 27.36ZM65.1701 27L58.2221 17.388L54.2261 21.132V27H51.7781V0.719999H54.2261V18.504L64.8461 8.28H67.5461L59.8781 15.948L67.8341 27H65.1701Z" fill="black" fill-opacity="0.9"/>
<path d="M78.968 27.36C77.624 27.36 76.376 27.108 75.224 26.604C74.072 26.076 73.076 25.368 72.236 24.48C71.396 23.568 70.736 22.524 70.256 21.348C69.8 20.172 69.572 18.912 69.572 17.568C69.572 15.816 69.968 14.208 70.76 12.744C71.576 11.28 72.692 10.116 74.108 9.252C75.524 8.364 77.132 7.92 78.932 7.92C80.78 7.92 82.388 8.364 83.756 9.252C85.148 10.14 86.24 11.316 87.032 12.78C87.824 14.22 88.22 15.804 88.22 17.532C88.22 17.724 88.22 17.916 88.22 18.108C88.22 18.276 88.208 18.408 88.184 18.504H72.128C72.248 19.848 72.62 21.048 73.244 22.104C73.892 23.136 74.72 23.964 75.728 24.588C76.76 25.188 77.876 25.488 79.076 25.488C80.3 25.488 81.452 25.176 82.532 24.552C83.636 23.928 84.404 23.112 84.836 22.104L86.96 22.68C86.576 23.568 85.988 24.372 85.196 25.092C84.404 25.812 83.468 26.376 82.388 26.784C81.332 27.168 80.192 27.36 78.968 27.36ZM72.056 16.74H85.916C85.82 15.372 85.448 14.172 84.8 13.14C84.176 12.108 83.348 11.304 82.316 10.728C81.308 10.128 80.192 9.828 78.968 9.828C77.744 9.828 76.628 10.128 75.62 10.728C74.612 11.304 73.784 12.12 73.136 13.176C72.512 14.208 72.152 15.396 72.056 16.74ZM90.7369 17.676C90.7369 15.9 91.0969 14.28 91.8169 12.816C92.5609 11.328 93.5809 10.14 94.8769 9.252C96.1729 8.364 97.6489 7.92 99.3049 7.92C100.865 7.92 102.257 8.34 103.481 9.18C104.729 9.996 105.701 10.992 106.397 12.168V0.719999H108.845V24.048C108.845 24.384 108.917 24.636 109.061 24.804C109.205 24.948 109.421 25.032 109.709 25.056V27C109.229 27.072 108.857 27.096 108.593 27.072C108.089 27.048 107.645 26.844 107.261 26.46C106.877 26.076 106.685 25.656 106.685 25.2V23.364C105.941 24.588 104.933 25.56 103.661 26.28C102.389 27 101.069 27.36 99.7009 27.36C98.4049 27.36 97.2049 27.096 96.1009 26.568C95.0209 26.04 94.0729 25.32 93.2569 24.408C92.4649 23.496 91.8409 22.464 91.3849 21.312C90.9529 20.136 90.7369 18.924 90.7369 17.676ZM106.397 20.556V14.76C106.085 13.896 105.581 13.116 104.885 12.42C104.189 11.7 103.397 11.136 102.509 10.728C101.645 10.296 100.781 10.08 99.9169 10.08C98.9089 10.08 97.9969 10.296 97.1809 10.728C96.3649 11.136 95.6569 11.7 95.0569 12.42C94.4809 13.14 94.0369 13.956 93.7249 14.868C93.4129 15.78 93.2569 16.716 93.2569 17.676C93.2569 18.684 93.4249 19.644 93.7609 20.556C94.1209 21.468 94.6249 22.284 95.2729 23.004C95.9209 23.7 96.6649 24.24 97.5049 24.624C98.3449 25.008 99.2569 25.2 100.241 25.2C100.865 25.2 101.513 25.08 102.185 24.84C102.857 24.6 103.493 24.276 104.093 23.868C104.717 23.436 105.233 22.932 105.641 22.356C106.049 21.78 106.301 21.18 106.397 20.556Z" fill="black" fill-opacity="0.5"/>
</svg>
